<?xml version="1.0" encoding="UTF-8" standalone="no"?>
<!-- Created with Inkscape (http://www.inkscape.org/) -->

<svg
   width="1080"
   height="1080"
   viewBox="0 0 1080 1080"
   version="1.1"
   id="svg5"
   inkscape:version="1.1.1 (3bf5ae0d25, 2021-09-20)"
   sodipodi:docname="Portrait07.svg"
   xmlns:inkscape="http://www.inkscape.org/namespaces/inkscape"
   xmlns:sodipodi="http://sodipodi.sourceforge.net/DTD/sodipodi-0.dtd"
   xmlns="http://www.w3.org/2000/svg"
   xmlns:svg="http://www.w3.org/2000/svg">
  <sodipodi:namedview
     id="namedview7"
     pagecolor="#ffffff"
     bordercolor="#666666"
     borderopacity="1.0"
     inkscape:pageshadow="2"
     inkscape:pageopacity="0.0"
     inkscape:pagecheckerboard="0"
     inkscape:document-units="px"
     showgrid="false"
     inkscape:snap-global="false"
     inkscape:zoom="0.50217676"
     inkscape:cx="614.32552"
     inkscape:cy="393.28781"
     inkscape:window-width="1920"
     inkscape:window-height="1017"
     inkscape:window-x="-8"
     inkscape:window-y="1072"
     inkscape:window-maximized="1"
     inkscape:current-layer="layer1" />
  <defs
     id="defs2">
    <inkscape:path-effect
       effect="lattice2"
       gridpoint0="50.265176,-6.144304"
       gridpoint1="1055.9625,-6.144304"
       gridpoint2="50.265176,1131.7293"
       gridpoint3="1055.9625,1131.7293"
       gridpoint4="301.68951,-6.144304"
       gridpoint5="848.4288,-31.98337"
       gridpoint6="301.68951,1131.7293"
       gridpoint7="804.53818,1131.7293"
       gridpoint8x9="555.1424,-70.018476"
       gridpoint10x11="553.11384,1131.7293"
       gridpoint12="50.265176,278.3241"
       gridpoint13="1055.9625,278.3241"
       gridpoint14="50.265176,847.2609"
       gridpoint15="1055.9625,847.2609"
       gridpoint16="301.68951,278.3241"
       gridpoint17="804.53818,278.3241"
       gridpoint18="301.68951,847.2609"
       gridpoint19="804.53818,847.2609"
       gridpoint20x21="553.11384,278.3241"
       gridpoint22x23="553.11384,847.2609"
       gridpoint24x26="50.265176,562.7925"
       gridpoint25x27="1055.9625,562.7925"
       gridpoint28x30="339.49446,580.77649"
       gridpoint29x31="862.25987,560.72537"
       gridpoint32x33x34x35="553.11384,562.7925"
       id="path-effect1655"
       is_visible="true"
       lpeversion="1"
       horizontal_mirror="false"
       vertical_mirror="false"
       perimetral="false"
       live_update="true" />
  </defs>
  <g
     inkscape:label="Layer 1"
     inkscape:groupmode="layer"
     id="layer1">
    <path
       id="path894"
       style="opacity:0.992;fill:#000000;stroke-width:3.77953;paint-order:stroke markers fill"
       d="M 517.567,47.214894 C 456.21263,48.12058 395.71572,69.843928 349.09078,96.099955 267.8335,142.63065 160.74653,219.50302 160.4281,252.42928 c 37.20483,-8.01815 105.59735,-56.82905 137.72319,-68.89646 -26.67963,25.09011 -54.03252,52.15712 -77.32956,78.56904 -23.4994,26.64133 -43.65677,57.09201 -58.60723,84.64403 20.82194,1.61851 51.04953,-26.53949 73.11843,-46.70977 10.85784,-9.92372 32.64653,-28.99824 51.12078,-45.12634 18.45481,-16.11114 24.38486,-21.95984 39.25895,-28.59943 -20.24935,29.06045 -49.02573,59.28204 -69.69282,87.55371 -18.36335,25.12026 -36.06282,61.91383 -51.1719,83.86936 31.86026,1.36632 61.97218,-52.52553 86.10507,-81.36561 18.06214,-21.5852 40.4084,-47.56497 62.88344,-67.08681 -10.77771,21.2092 -23.32044,42.28502 -34.05005,63.58528 -10.71094,21.26322 -19.65396,42.87144 -22.91333,65.34689 10.67318,-2.41368 22.09148,-20.72083 32.49606,-38.97852 9.88825,-17.35168 26.64786,-39.5173 38.18989,-51.26176 37.0986,56.83867 65.76685,119.29601 91.70288,169.98218 -9.099,9.08514 -23.2479,23.22051 -29.71187,35.7156 -10.86695,21.00623 -10.26931,38.43472 0.75764,53.07759 10.99675,14.60279 29.56162,19.8767 56.55434,12.94017 9.21822,43.4517 7.69573,86.25853 5.88132,130.18405 -55.3773,40.69171 -117.08265,81.88048 -147.64831,138.87745 1.27817,6.87055 1.87342,14.55329 3.3373,21.68469 -17.84886,13.81796 -77.22818,56.16749 -99.42793,75.34019 32.9773,-17.61401 68.14276,-45.57496 101.06248,-67.05272 2.68568,10.77967 18.27678,54.16404 26.17161,68.63307 7.91122,14.49909 17.62716,25.46251 27.66828,21.68775 -1.85345,-6.50844 -10.5191,-28.67374 -14.8846,-46.00479 -4.33019,-17.19084 -13.94421,-55.35471 1.49667,-43.15556 33.9604,28.83691 54.20829,67.12721 75.28132,107.41326 10.40035,10.05775 5.70523,-3.67608 -2.6122,-21.44922 -15.04007,-32.99188 -36.30851,-63.92839 -61.23648,-87.4917 -13.52567,-12.60215 -27.27014,-19.22714 -27.88207,1.58033 -0.3104,10.55431 11.56662,59.07397 20.0842,77.27841 -14.13549,-5.66789 -43.37256,-98.11194 -39.55023,-107.96482 5.72185,-13.8829 28.12981,-44.45935 50.43751,-60.82279 29.1386,-25.46897 55.8292,-47.47414 86.76045,-69.84465 -0.032,5.8525 -0.87963,18.79554 -1.43315,23.07755 -8.37312,7.46456 -25.31623,21.15854 -40.35125,33.04142 -19.22143,15.19158 -38.15909,31.05088 -49.16549,50.32905 -12.45801,21.8207 -3.16998,35.97791 11.63871,50.15707 14.9358,14.30087 29.64809,29.31307 38.58809,45.51213 10.29722,18.65829 20.85562,35.87741 30.15962,55.49767 9.38402,19.78891 18.63751,38.81248 29.85286,53.30383 -8.06085,-39.52534 -31.74369,-79.14647 -49.2631,-109.28799 -11.42652,-19.65893 -25.55507,-41.71777 -45.05042,-61.24732 9.65878,-10.36778 30.07877,-24.70625 45.64537,-38.09695 15.53259,-13.3614 28.88805,-28.42537 31.76011,-47.76332 10.32061,-60.71521 11.16572,-134.70992 1.35258,-195.67814 9.80483,-5.67236 23.83297,-10.24878 41.28705,-24.0366 14.82243,-11.70895 27.3366,-24.45775 40.57126,-44.4028 4.34071,-6.54158 10.89848,-21.60882 13.10904,-30.8119 -18.49948,29.50363 -41.63421,53.70605 -59.53219,67.57641 -21.05926,16.01638 -49.46819,30.45093 -72.75743,27.52108 -23.78874,-2.99268 -30.47475,-28.62735 -20.75353,-50.27947 9.65293,-21.50002 29.68758,-40.44736 45.72129,-53.13492 13.93919,-11.03017 41.97019,-28.67373 55.15218,-45.92891 13.14953,-17.21269 18.87228,-30.72703 25.26058,-37.87229 18.46053,14.62004 43.07377,22.85876 65.50028,22.41133 22.4832,-0.44853 43.08812,-9.58601 54.23496,-30.66161 19.37884,-24.07 20.55178,-60.8528 8.29058,-93.84253 -12.16163,-32.72177 -38.88815,-57.38771 -73.47324,-64.68376 -19.03064,-4.0147 -38.7847,-1.61579 -54.67342,8.15112 -15.81708,9.72287 -26.37418,22.18092 -32.55492,33.3203 -12.67697,-21.41108 -37.48187,-31.12432 -63.39162,-20.73184 -21.58322,8.6571 -39.14755,31.57757 -44.92958,55.66192 -5.77673,24.06231 -4.33552,52.75976 4.66819,76.80587 9.02533,24.10384 26.00053,44.02501 52.98619,50.39723 22.06363,5.20996 42.69317,-1.44724 55.79516,-11.07939 -6.07606,8.62727 -11.17051,14.78317 -23.65546,25.23115 -12.34114,10.98493 -35.88254,27.08596 -47.61925,35.96039 -24.27326,-51.30649 -55.18599,-117.3993 -91.56653,-171.63844 36.63473,-35.13454 78.32416,-64.48941 122.4714,-84.6208 44.52441,-20.30338 90.18653,-32.84281 135.91974,-30.47569 24.06213,1.24543 37.65487,18.66986 49.60241,39.35501 11.94755,20.68515 15.77191,35.62494 22.59106,48.47138 2.99523,-10.58444 6.8577,-24.93991 6.06106,-39.09782 16.2401,25.80269 31.43018,103.94723 39.40614,129.44037 -11.48916,11.93576 -24.43466,39.74695 -15.96295,50.47159 4.49174,-18.37394 18.67141,-38.23265 33.12509,-51.71882 14.49126,-13.52126 34.6246,-25.91385 51.54529,-14.27415 18.04518,12.41324 23.32263,39.26993 24.38985,61.36662 1.07149,22.1853 -0.24425,41.48086 -6.53205,58.72962 -3.54095,9.71356 -9.91885,16.09416 -18.68205,23.19066 -8.76967,7.10172 -20.60667,14.07666 -31.67025,19.92928 -11.0025,5.8203 -21.24654,10.52786 -26.07864,12.65663 -4.85634,2.13946 -5.93328,4.23047 4.79214,2.37205 8.92081,-1.54574 14.93807,-3.33548 19.53264,-4.69297 1.61895,7.18821 2.46041,25.38556 3.45815,38.61132 1.68871,22.38507 -0.71153,49.55795 -1.46414,66.5275 -1.35531,30.55896 1.04413,53.25843 -7.35166,74.59341 -6.65013,16.899 -20.90186,32.72536 -43.32754,52.44237 -47.96992,42.17589 -101.90361,83.49325 -156.94286,120.67259 -7.46092,36.39544 -12.23499,74.65645 -30.89868,109.18576 -5.24928,7.52462 -11.17496,24.7554 -13.24228,35.55137 -2.23509,11.672 -0.0623,12.6921 9.55328,-7.95132 17.63908,-42.06677 36.96651,-86.08466 41.95483,-130.89208 40.83326,-26.69562 79.80604,-56.10499 116.87669,-86.21198 43.55194,-35.37077 89.27687,-69.32978 90.16282,-115.65736 29.1359,22.87144 15.94179,64.41054 -4.6527,102.82565 -52.12096,92.19155 -111.65861,157.10366 -180.2745,229.91721 -14.58985,-11.1043 7.01384,-114.09129 -9.15356,-129.46206 -6.1964,23.45597 -28.52344,65.66414 -21.78849,90.76397 1.09231,-18.75718 13.16465,-51.74605 21.83963,-77.0135 10.0782,12.82389 -13.27901,119.12534 11.26376,124.59087 71.4094,-72.49927 137.5468,-153.09364 185.31454,-235.20355 37.79017,40.06177 105.03569,82.92437 149.40991,114.92607 16.44355,10.80181 11.19696,3.49365 1.89948,-5.97429 -9.54324,-9.71816 -24.49909,-23.15998 -29.77693,-25.57356 -39.66204,-31.08179 -82.48646,-53.30849 -117.60951,-90.6772 16.73805,-33.41376 34.75212,-83.42868 -5.54667,-110.06731 0.5932,-14.63675 0.87868,-26.52339 1.30765,-48.62477 0.41752,-21.5116 0.38259,-40.46354 -0.0899,-61.81748 -0.25714,-11.62221 -2.47387,-30.01047 -3.2118,-38.303 7.91586,-4.61457 17.96854,-9.29697 25.20791,-15.19137 15.81177,-12.87416 28.06437,-20.41636 33.84088,-51.10063 3.42958,-18.21757 4.52642,-42.77383 0.14409,-64.29179 -4.36497,-21.43269 -10.09378,-44.18123 -33.16536,-54.06608 -10.81144,-4.63209 -24.41768,-2.90848 -37.0248,2.86785 -2.18523,-11.98227 -7.70421,-36.87737 -10.82685,-49.69382 -4.93373,-20.24983 -13.95561,-42.21248 -23.27432,-57.76749 -7.87344,-13.14252 -16.61678,-19.17811 -25.68976,-25.19706 4.89034,-7.2653 12.77183,-17.40101 18.29006,-25.92681 10.07016,-15.55859 19.93317,-33.7131 10.31712,-54.76484 -8.64522,20.50532 -21.85077,30.44975 -41.51791,43.71953 1.9218,-27.79855 4.71811,-62.177966 -15.71194,-91.537087 -12.80525,22.925659 -9.47792,43.698607 -12.40873,65.288017 C 646.00035,81.418564 615.8468,62.923855 578.726,53.850756 558.56631,48.923305 538.01846,46.912999 517.567,47.214894 Z m 5.74654,9.827521 c 19.23619,0.1862 38.24347,2.22237 56.65815,6.129224 21.48036,4.557274 40.81566,14.521642 58.10678,29.756798 17.06279,15.033973 40.76412,39.124223 46.13497,49.250713 6.34876,-16.34176 -2.1332,-57.730301 8.25802,-76.606019 15.87684,28.442537 7.84818,71.568139 4.40481,99.877239 8.89166,-2.56136 19.50528,-11.38731 28.61337,-19.97111 9.15439,-8.62743 19.75579,-20.76889 24.11562,-30.98698 2.8945,23.16904 -27.47221,52.86676 -36.80014,72.92476 17.729,7.55153 33.63519,31.3979 41.89905,57.08731 7.75127,24.09593 12.92088,56.87561 16.41845,78.48383 -5.90915,3.88379 -11.37115,8.57934 -15.79406,14.05569 -10.32388,-31.92741 -26.83834,-117.71485 -50.04243,-132.84893 0.84893,6.86144 -1.38635,24.84084 -2.30698,32.57197 -5.02779,-16.51544 -8.62839,-28.45565 -12.48156,-35.21207 -11.61572,-20.3677 -26.12215,-36.13245 -49.88438,-41.1662 -24.09803,-5.10487 -50.60851,-1.00088 -71.49472,3.108 -45.72413,10.00518 -91.77422,28.51396 -134.9607,56.22898 -18.89495,12.12583 -48.64531,35.28293 -72.21206,62.68665 -29.4984,34.30114 -48.9353,78.59986 -58.25397,85.06856 4.04671,-30.34536 59.47938,-111.33492 55.26218,-127.7841 -27.89334,14.71663 -53.47996,48.14979 -84.82841,85.04531 -17.06532,20.08503 -40.92808,56.65927 -58.75442,64.4932 11.78994,-12.34031 24.55242,-38.14734 46.21399,-67.87853 29.67299,-40.7271 66.16156,-86.10265 77.67197,-105.40066 -16.81204,0.17524 -40.69393,14.04269 -59.9908,31.72912 -19.687,18.044 -36.52319,33.85974 -51.19979,47.42402 -7.62028,7.04275 -44.18882,41.51099 -55.12428,44.96676 14.62246,-25.94949 57.00662,-75.61781 80.39882,-100.46909 23.8241,-25.2038 63.04299,-57.03427 76.18614,-78.69299 -61.38202,19.70124 -121.29692,68.11331 -159.61084,80.6963 26.71551,-39.8023 117.00133,-95.37729 183.87984,-136.79977 52.03693,-32.230065 111.8088,-48.326585 169.51738,-47.767985 z m 83.79344,150.297695 c 22.05153,1.33986 43.19574,12.22637 56.51251,27.13221 15.32269,17.61651 25.1132,41.10637 25.42016,63.85022 3.00654,24.00422 -6.65863,48.44108 -23.45249,64.27939 -16.73252,15.78046 -40.6816,23.08045 -65.2152,11.63872 -33.44754,-9.09999 -56.6329,-40.61174 -63.31415,-74.69877 -6.61498,-33.74898 3.47942,-70.1398 35.64432,-85.65421 8.0386,-3.87734 16.47273,-5.94957 24.91819,-6.52121 3.16704,-0.21437 6.33644,-0.21777 9.48666,-0.0263 z m -122.53647,16.2031 c 20.07438,-1.45531 31.29586,10.61906 37.02015,24.55254 6.57572,16.00595 3.48827,35.08097 7.61196,53.75156 4.14114,18.74963 15.49883,36.86432 19.54348,50.814 2.59319,8.94372 -8.79029,30.13432 -25.86948,36.19279 -30.89929,10.96085 -56.5068,4.45976 -73.22534,-15.82195 -16.75482,-20.32574 -22.31067,-51.0564 -21.70792,-77.32181 0.63465,-27.65531 19.95749,-63.93472 47.47205,-70.68131 3.23895,-0.79418 6.28734,-1.27794 9.1551,-1.48582 z m 164.19072,285.3746 c -2.19737,0.0898 -4.24817,0.51337 -6.00528,1.33554 -7.83751,3.66723 4.94428,6.87122 11.42025,10.05992 6.49381,3.19749 4.36902,11.72792 -5.19961,20.51183 -14.82917,13.61306 -33.59609,27.48568 -53.73917,37.84595 -32.32605,16.62639 -59.16951,17.21076 -62.39538,9.44329 -1.07621,-4.30377 11.08545,-21.15633 11.58293,-42.37625 -3.69382,8.33825 -7.06825,15.77008 -12.54044,25.08396 -10.99462,18.71333 -6.83742,28.31298 7.23082,31.98631 14.06823,3.67333 28.31468,0.7062 44.30518,-3.89197 -10.61886,30.23339 7.51121,41.00313 25.08397,33.32031 17.42047,-7.61624 29.35885,-29.64113 36.97056,-48.70689 4.18891,-10.49235 9.67786,-24.61345 14.44768,-36.23153 4.75592,-11.58424 9.92733,-20.57461 22.31218,-12.06942 -1.67501,-7.80418 -5.73159,-13.63874 -13.72569,-19.79758 -5.24584,-4.04153 -13.15591,-6.78281 -19.748,-6.51347 z m -88.41825,11.49772 c 0.2664,13.6178 1.46673,28.11158 -2.80587,40.38688 -4.89978,14.07724 0.78431,13.42169 8.71354,-5.02454 -0.32378,-11.71132 -1.91504,-25.25157 -5.90767,-35.36234 z m 92.53177,26.39471 c -7.82676,17.81421 -16.01299,45.42249 -31.33249,63.58064 -18.50548,21.93447 -41.84203,19.78569 -31.55094,-13.61259 22.92691,-13.66135 45.13718,-28.9021 62.88343,-49.96805 z m -3.22575,61.19619 c -6.70883,14.90562 -20.75996,31.2613 -36.12772,37.45241 -17.39837,7.00917 -37.6289,2.70508 -42.92471,-14.81487 -2.06189,16.29064 8.55926,25.25646 20.95805,27.25924 -15.12704,6.93854 -29.71626,16.16502 -37.1348,25.22961 -12.26729,14.98918 -12.25872,36.3636 8.84213,45.06281 -13.91789,-15.62093 -8.59256,-32.93566 6.12303,-47.46431 9.0735,-8.95823 22.12277,-16.20852 32.54253,-22.81416 26.96129,-3.05293 45.16268,-32.36157 47.72149,-49.91073 z M 490.03817,730.83417 c 0.54879,5.21391 -0.53887,18.0561 -5.83175,29.53679 -4.95798,10.75427 -13.65009,21.65201 -21.39031,29.34002 -16.05756,15.94925 -36.21834,28.25559 -51.33768,43.40192 -12.47412,-14.74703 3.95502,-36.57199 17.86089,-49.71242 19.45386,-18.38303 47.69497,-40.82334 60.69885,-52.56631 z"
       sodipodi:nodetypes="scccscsscscscscsccssccccccscsccccscccccssssscscsccssccsssscscssscssssccccsssccccsssssssscssssccsccscccccccccscccsscsssscsscsccccssssscccsccsccccsscssccscscssccccsssccscssssscssssssscsssssccsscssscsscscccscccsccscscccsscsc" />
    <circle
       style="opacity:0.992;fill:#000000;stroke-width:3.77953;paint-order:stroke markers fill"
       id="path25786"
       cx="604.21161"
       cy="300.75937"
       r="22.115187" />
    <circle
       style="opacity:0.992;fill:#ffffff;stroke-width:3.77953;paint-order:stroke markers fill"
       id="circle26066"
       cx="610.13538"
       cy="291.67633"
       r="12.63725" />
    <circle
       style="opacity:0.992;fill:#000000;stroke-width:3.77953;paint-order:stroke markers fill"
       id="circle26086"
       cx="495.21533"
       cy="318.53052"
       r="22.115187" />
    <circle
       style="opacity:0.992;fill:#ffffff;stroke-width:3.77953;paint-order:stroke markers fill"
       id="circle26088"
       cx="501.1391"
       cy="309.44748"
       r="12.63725" />
  </g>
</svg>
