<?xml version="1.0" encoding="UTF-8" standalone="no"?>
<!-- Created with Inkscape (http://www.inkscape.org/) -->
<svg xmlns:rdf="http://www.w3.org/1999/02/22-rdf-syntax-ns#" xmlns="http://www.w3.org/2000/svg" xmlns:i="http://ns.adobe.com/AdobeIllustrator/10.0/" xmlns:cc="http://web.resource.org/cc/" xmlns:xlink="http://www.w3.org/1999/xlink" xmlns:dc="http://purl.org/dc/elements/1.1/" xmlns:svg="http://www.w3.org/2000/svg" xmlns:inkscape="http://www.inkscape.org/namespaces/inkscape" xmlns:sodipodi="http://sodipodi.sourceforge.net/DTD/sodipodi-0.dtd" xmlns:ns1="http://sozi.baierouge.fr" id="svg2" version="1.0" viewBox="0 0 323.86 133.382" inkscape:version="0.91 r13725">
  <g id="g3200">
    <path id="path15" style="stroke:#000000;stroke-width:.036;stroke-miterlimit:10;fill-rule:evenodd" d="m74.18 4.915l19.116 26.352 21.164 14.76 41.12-1.548 35.38-4.14 44.72 20.16 36.18 9.036 28.9-7.236 23.01-14.976-17.03 20.124-20.16 10.367-28.69 0.253-14.73-1.837-10.08 23.005 12.39 4.145 1.29 17.06 14.22 4.39-13.17 6.7-16.27-18.87-17.32-4.39 4.14 7.52-24.3 17.57-16.27-1.29-1.04-9.04 9.82 0.25 18.08-11.63-11.34-8.02-4.15-9.832h-17.56l-35.43 11.122-1.8 10.87 20.16-1.04-6.44 11.88-18.87 0.5-13.46-22.46-0.5 8.28-19.371 8.5-6.984 8.81-24.3 1.81 3.888-10.34 13.428 1.3 10.332-17.32-5.436-5.68-0.252-10.084-15.48-18.864-10.369-15.515-6.696 4.932-5.94-6.732v-15.264l-38.772-10.044-9.288-13.464 2.052-6.192h27.396l6.732-8.784 37.98 4.896z"/>
    <path id="path17" style="fill-rule:evenodd;stroke:#000000;stroke-miterlimit:10;stroke-width:.036;fill:#ffffff" d="m189.67 42.391l43.67 19.116 38.52 9.576 30.99-8.028 12.67-9.036-10.62 12.132-19.62 9.828-28.69-0.252-13.17-1.8-5.19-5.939-14.18-8.532-14.47-0.252-17.07 10.332-5.69 10.08 1.55 11.376-19.62 0.756-32.58 11.372 1.84-17.312-18.87-6.191 16.02 8.531-3.13 28.402 17.07 0.25-2.85 8.03-16.02 0.25-16.52-25.05-19.91-15.267 19.4 19.407-18.608-8.283-7.236-8.027-25.056-33.301 13.68-13.212-8.784-26.604 4.644 25.848-18.072 17.064-4.14-5.184-0.504-13.428 6.948-25.056-8.784 22.212-37.188-8.784-6.984-11.628 5.94-1.044 1.8-4.896h20.664l5.184-7.776 36.432 4.14 18.36 25.848 21.164 15.516 42.38-0.792 34.63-4.392z"/>
    <path id="path19" style="stroke:#000000;stroke-width:.036;stroke-miterlimit:10;fill-rule:evenodd" d="m38.504 8.047l7.776 0.756-5.976 1.296-0.504 4.896-3.6-1.8 2.304-5.148z"/>
    <path id="path21" style="fill-rule:evenodd;stroke:#000000;stroke-miterlimit:10;stroke-width:.036;fill:#ffffff" d="m92.252 97.687l20.948 8.533 0.51 5.94-20.666 7.49-4.932 8.53-20.916 1.8 2.592-6.19 13.428 0.25 11.628-18.86-6.192-5.944-0.288-5.94 3.888 4.391z"/>
    <path id="path23" style="fill-rule:evenodd;stroke:#000000;stroke-miterlimit:10;stroke-width:.036;fill:#ffffff" d="m241.87 74.179l-4.39-4.896-9.04-4.932-5.18-3.096-11.38-0.504-16.52 8.784-5.94 10.584 1.54 13.176 3.1 8.535 12.67 9.83-18.36 13.17-9.54-0.25 0.51 5.15 12.67 1.8 22.46-16.53-4.64-10.58 12.13-10.333 8.28-1.548 11.63-18.36z"/>
    <path id="path25" style="fill-rule:evenodd;stroke:#000000;stroke-miterlimit:10;stroke-width:.036;fill:#ffffff" d="m230.49 94.843l-6.69 0.792-11.13 8.535 1.3 3.35 19.11 4.39 11.38 17.06 10.08-3.38-8.53-3.35-4.65-18.36-10.36-3.6 4.42-11.881-4.93 6.444z"/>
  </g>
  <metadata>
    <rdf:RDF>
      <cc:Work>
        <dc:format>image/svg+xml</dc:format>
        <dc:type rdf:resource="http://purl.org/dc/dcmitype/StillImage"/>
        <cc:license rdf:resource="http://creativecommons.org/licenses/publicdomain/"/>
        <dc:publisher>
          <cc:Agent rdf:about="http://openclipart.org/">
            <dc:title>Openclipart</dc:title>
          </cc:Agent>
        </dc:publisher>
        <dc:title>Dog (Simple Drawing)</dc:title>
        <dc:date>2007-11-14T23:31:29</dc:date>
        <dc:description/>
        <dc:source>https://openclipart.org/detail/8509/dog-(simple-drawing)-by-gerald_g-8509</dc:source>
        <dc:creator>
          <cc:Agent>
            <dc:title>Gerald_G</dc:title>
          </cc:Agent>
        </dc:creator>
        <dc:subject>
          <rdf:Bag>
            <rdf:li>animal</rdf:li>
            <rdf:li>colouring book</rdf:li>
            <rdf:li>dog</rdf:li>
            <rdf:li>mammal</rdf:li>
            <rdf:li>pet</rdf:li>
          </rdf:Bag>
        </dc:subject>
      </cc:Work>
      <cc:License rdf:about="http://creativecommons.org/licenses/publicdomain/">
        <cc:permits rdf:resource="http://creativecommons.org/ns#Reproduction"/>
        <cc:permits rdf:resource="http://creativecommons.org/ns#Distribution"/>
        <cc:permits rdf:resource="http://creativecommons.org/ns#DerivativeWorks"/>
      </cc:License>
    </rdf:RDF>
  </metadata>
</svg>
